<?xml version="1.0" standalone="no"?>
<!DOCTYPE svg PUBLIC "-//W3C//DTD SVG 20010904//EN"
 "http://www.w3.org/TR/2001/REC-SVG-20010904/DTD/svg10.dtd">
<svg version="1.0" xmlns="http://www.w3.org/2000/svg"
 width="32" height="32" viewBox="0 0 1280.000000 640.000000"
 preserveAspectRatio="xMidYMid meet">
<metadata>
Created by potrace 1.15, written by Peter Selinger 2001-2017
</metadata>
<g transform="translate(0.000000,640.000000) scale(0.100000,-0.100000)"
fill="#000000" stroke="none">
<path d="M6335 6099 c-77 -78 -366 -345 -520 -480 -401 -350 -794 -662 -1370
-1084 -229 -168 -416 -318 -1180 -950 -493 -408 -611 -498 -815 -622 l-85 -51
-10 31 c-12 37 -60 72 -128 92 -92 27 -138 16 -195 -50 -38 -42 -75 -112 -67
-125 6 -10 130 -40 172 -41 27 -1 26 -1 -12 -19 -22 -11 -68 -27 -103 -36 -62
-17 -64 -17 -106 4 -57 29 -81 28 -154 -8 -76 -39 -161 -121 -196 -191 -25
-51 -27 -53 -64 -51 -27 2 -43 -2 -55 -16 -25 -27 -32 -85 -17 -123 20 -48
102 -75 151 -49 14 8 27 6 50 -5 76 -40 261 -37 356 5 71 31 103 116 73 196
-6 15 -9 28 -7 31 2 2 38 -25 79 -59 42 -35 128 -97 191 -138 65 -42 116 -82
115 -90 -1 -32 3 -39 36 -60 24 -14 49 -20 78 -19 36 1 75 -14 238 -94 317
-154 715 -304 1060 -398 115 -31 122 -34 80 -37 -24 -2 -77 4 -117 14 -46 11
-89 15 -118 11 -60 -9 -153 -55 -179 -90 -19 -26 -19 -30 -5 -55 23 -41 267
-179 392 -221 49 -17 54 -21 87 -88 19 -39 44 -81 54 -92 50 -54 298 -78 380
-36 l40 20 4 186 c3 158 1 191 -13 218 -16 31 -16 32 7 27 164 -36 594 -101
790 -121 l67 -7 -30 -44 c-42 -62 -90 -167 -96 -212 -12 -93 137 -198 331
-232 120 -21 463 -8 694 26 l43 6 -31 -48 c-86 -136 -56 -190 138 -250 148
-46 325 -47 513 -4 178 41 298 120 330 218 l12 37 -134 128 c-158 151 -202
184 -281 209 -64 19 -173 24 -225 9 -29 -8 -34 -6 -72 36 -23 26 -41 46 -41
47 0 1 105 0 232 -2 338 -5 1160 29 1261 52 22 5 22 4 -15 -71 -25 -52 -30
-69 -22 -91 16 -46 46 -54 174 -48 245 11 345 78 312 208 -6 23 -8 46 -4 49
10 8 294 51 299 45 3 -3 -14 -61 -37 -130 -23 -69 -44 -150 -47 -181 -6 -55
-6 -55 -40 -55 -49 0 -64 -11 -123 -87 -56 -73 -85 -101 -168 -164 -77 -58
-81 -73 -42 -149 59 -116 167 -197 295 -221 95 -18 227 -6 336 31 112 37 226
96 247 128 21 32 10 93 -26 152 l-29 47 111 12 c245 28 511 87 633 141 47 21
51 15 27 -33 l-17 -31 69 -62 c117 -106 274 -174 401 -174 159 0 725 147 829
215 58 38 54 106 -12 238 -88 176 -255 375 -406 484 -27 19 -48 36 -48 38 0 2
20 18 44 34 l44 31 -5 -38 c-10 -73 59 -122 173 -122 69 0 161 18 205 40 84
44 175 188 181 291 l3 42 -170 59 c-116 41 -181 58 -204 56 -31 -4 -37 0 -77
56 -24 33 -44 63 -44 66 0 4 37 30 83 57 121 75 236 159 324 239 78 70 78 70
106 55 15 -9 25 -21 23 -27 -10 -26 -87 -125 -148 -189 -38 -39 -68 -76 -68
-82 0 -20 189 -90 333 -123 95 -22 212 -24 273 -5 18 6 20 3 16 -28 -6 -50 15
-58 196 -69 165 -11 323 -1 375 23 62 28 40 103 -64 214 -96 103 -165 126
-259 89 l-40 -16 -77 72 c-92 84 -232 182 -287 200 -26 8 -66 41 -125 99 -155
157 -284 192 -347 96 -16 -24 -15 -27 22 -73 20 -26 42 -54 48 -62 14 -19 21
-24 -159 117 -561 438 -1024 766 -2050 1451 -1416 944 -2080 1431 -2525 1851
-36 33 -65 61 -65 61 0 0 -27 -27 -60 -61z m3767 -4287 c-4 -66 -3 -69 27 -99
28 -29 79 -51 154 -68 l29 -6 -39 -30 c-62 -49 -203 -190 -243 -244 -21 -27
-55 -87 -75 -132 l-37 -82 -48 98 c-58 119 -96 164 -169 201 -78 39 -151 96
-200 155 -22 27 -41 53 -41 57 0 4 33 17 73 28 111 32 425 136 492 164 33 13
65 25 71 25 8 1 10 -20 6 -67z"/>
<path d="M11655 3031 c-50 -30 -95 -78 -95 -100 0 -24 46 -61 120 -95 60 -28
100 -32 149 -15 70 25 59 77 -36 172 -63 63 -87 70 -138 38z"/>
<path d="M12405 2781 c-22 -10 -56 -36 -76 -57 -41 -43 -99 -123 -99 -135 0
-4 22 -24 49 -43 97 -72 225 -94 342 -60 67 19 169 64 169 74 0 16 -84 101
-143 146 -68 51 -151 94 -182 94 -11 0 -38 -9 -60 -19z"/>
<path d="M1101 2404 c-52 -22 -120 -82 -152 -133 -31 -48 -39 -114 -19 -152 9
-16 7 -19 -10 -19 -24 0 -106 -72 -115 -101 -22 -69 130 -116 233 -74 40 17
114 83 106 96 -2 4 22 15 53 24 70 20 189 79 222 108 76 70 29 148 -143 237
-66 34 -120 38 -175 14z"/>
<path d="M21 2117 c-21 -26 -24 -75 -6 -103 26 -41 78 -57 183 -56 89 0 130
12 116 33 -3 5 -40 27 -82 49 -42 22 -97 51 -122 65 -50 28 -72 31 -89 12z"/>
<path d="M462 2060 c-29 -12 -37 -35 -24 -66 9 -18 19 -24 43 -24 51 0 119 51
119 89 0 13 -105 14 -138 1z"/>
<path d="M1954 1981 c-37 -22 -102 -104 -110 -138 -23 -90 201 -150 332 -89
54 25 84 57 84 90 0 48 -166 156 -239 156 -20 0 -50 -9 -67 -19z"/>
<path d="M2761 1976 c-13 -14 -20 -29 -16 -35 14 -23 155 -5 155 20 0 14 -56
39 -88 39 -17 0 -37 -9 -51 -24z"/>
<path d="M11965 1863 c-96 -35 -166 -96 -200 -175 -8 -18 -41 -67 -74 -108
-66 -81 -74 -106 -38 -119 56 -21 300 -45 467 -46 199 0 237 6 280 41 26 22
30 32 30 76 0 55 -45 162 -98 235 -68 92 -247 139 -367 96z"/>
<path d="M1450 1758 c-58 -30 -73 -66 -43 -106 18 -24 27 -27 79 -27 47 1 74
8 129 35 59 29 70 39 70 60 0 33 -40 52 -124 57 -55 4 -74 0 -111 -19z"/>
<path d="M3481 1365 c-63 -18 -81 -30 -81 -55 0 -22 50 -65 96 -85 123 -51
321 -11 312 63 -2 21 -15 33 -63 56 -73 36 -179 44 -264 21z"/>
<path d="M2763 1280 c-40 -13 -70 -31 -87 -51 -31 -37 -32 -49 -7 -81 36 -45
212 -118 285 -118 84 0 180 76 193 153 4 29 1 40 -20 60 -33 34 -83 47 -202
52 -83 4 -111 2 -162 -15z"/>
<path d="M11460 1145 c-55 -25 -98 -62 -126 -111 l-27 -46 20 -26 c56 -76 209
-105 328 -63 65 23 110 61 120 101 9 39 -28 78 -112 117 -88 41 -154 50 -203
28z"/>
<path d="M5281 858 c-61 -17 -135 -74 -196 -151 -33 -42 -64 -76 -69 -76 -4
-1 -30 -19 -56 -41 -26 -22 -52 -40 -58 -40 -11 0 -101 -90 -115 -115 -36 -65
100 -121 273 -113 97 5 141 19 181 59 18 18 18 22 4 56 -8 20 -14 38 -11 40 2
2 37 -2 77 -8 103 -17 354 -18 401 -1 109 39 101 147 -21 272 -61 62 -117 95
-196 116 -57 16 -164 17 -214 2z"/>
<path d="M7966 514 c-97 -35 -136 -82 -136 -162 0 -42 24 -73 73 -91 48 -18
170 -13 230 9 67 25 127 79 127 113 0 34 -42 82 -104 117 -58 34 -124 39 -190
14z"/>
</g>
</svg>
