<?xml version="1.0" encoding="UTF-8" standalone="no"?>
<svg
   xmlns:dc="http://purl.org/dc/elements/1.1/"
   xmlns:cc="http://creativecommons.org/ns#"
   xmlns:rdf="http://www.w3.org/1999/02/22-rdf-syntax-ns#"
   xmlns:svg="http://www.w3.org/2000/svg"
   xmlns="http://www.w3.org/2000/svg"
   xmlns:sodipodi="http://sodipodi.sourceforge.net/DTD/sodipodi-0.dtd"
   xmlns:inkscape="http://www.inkscape.org/namespaces/inkscape"
   width="32"
   height="32"
   version="1.1"
   id="Layer_1"
   x="0px"
   y="0px"
   viewBox="0 0 512 512"
   style="enable-background:new 0 0 512 512;"
   xml:space="preserve"
   sodipodi:docname="head-left.svg"
   inkscape:version="1.0.1 (3bc2e813f5, 2020-09-07)"><metadata
   id="metadata53"><rdf:RDF><cc:Work
       rdf:about=""><dc:format>image/svg+xml</dc:format><dc:type
         rdf:resource="http://purl.org/dc/dcmitype/StillImage" /><dc:title></dc:title></cc:Work></rdf:RDF></metadata><defs
   id="defs51" /><sodipodi:namedview
   pagecolor="#ffffff"
   bordercolor="#666666"
   borderopacity="1"
   objecttolerance="10"
   gridtolerance="10"
   guidetolerance="10"
   inkscape:pageopacity="0"
   inkscape:pageshadow="2"
   inkscape:window-width="2560"
   inkscape:window-height="1042"
   id="namedview49"
   showgrid="false"
   inkscape:zoom="20.78125"
   inkscape:cx="5.3413534"
   inkscape:cy="16"
   inkscape:window-x="0"
   inkscape:window-y="38"
   inkscape:window-maximized="0"
   inkscape:current-layer="Layer_1" />
<path
   style="fill:#ffdb80"
   d="M 512,244.87 V 44.522 C 512,19.933 492.067,0 467.478,0 H 300.521 C 275.934,0 256,19.933 256,44.522 V 244.87 Z"
   id="path2" />
<path
   style="fill:#ffeb99"
   d="M 256,44.522 V 244.87 H 384 V 0 H 300.522 C 275.934,0 256,19.933 256,44.522 Z"
   id="path4" />
<path
   style="fill:#d15d39"
   d="M 512,77.913 V 44.522 C 512,19.933 492.067,0 467.478,0 H 300.521 C 275.934,0 256,19.933 256,44.522 v 33.391 z"
   id="path6" />
<path
   style="fill:#967a56"
   d="M 144.696,233.739 V 122.435 c 12.295,0 22.261,-9.966 22.261,-22.261 v 0 c 0,-12.295 -9.966,-22.261 -22.261,-22.261 H 77.913 c -12.295,0 -22.261,9.966 -22.261,22.261 v 0 c 0,12.295 9.966,22.261 22.261,22.261 v 111.304 z"
   id="path8" />
<path
   style="fill:#b79969"
   d="m 464.234,456.348 h 3.245 c 24.588,0 44.521,-19.934 44.521,-44.522 V 211.478 H 44.522 C 19.934,211.478 0,231.412 0,256 v 155.826 c 0,24.588 19.933,44.522 44.522,44.522 z"
   id="path10" />
<path
   style="fill:#4c443b"
   d="m 0,300.522 v 111.304 c 0,24.588 19.933,44.522 44.522,44.522 h 419.712 3.245 c 24.588,0 44.521,-19.934 44.521,-44.522 V 300.522 Z"
   id="path12" />
<path
   style="fill:#7a9390"
   d="m 467.478,422.957 c 0,-49.178 -39.866,-89.043 -89.043,-89.043 -49.177,0 -89.043,39.866 -89.043,89.043 0,49.177 39.865,89.043 89.043,89.043 49.178,0 89.043,-39.866 89.043,-89.043 z M 100.174,512 c -30.736,0 -55.652,-24.917 -55.652,-55.652 0,-30.735 24.917,-55.652 55.652,-55.652 30.735,0 55.652,24.917 55.652,55.652 0,30.735 -24.916,55.652 -55.652,55.652 z"
   id="path14" />
<path
   style="fill:#eab250"
   d="m 411.826,422.957 c 0,-18.442 -14.949,-33.391 -33.391,-33.391 -18.442,0 -33.391,14.949 -33.391,33.391 0,18.442 14.949,33.391 33.391,33.391 18.442,0 33.391,-14.949 33.391,-33.391 z m -311.652,55.652 c -12.295,0 -22.261,-9.966 -22.261,-22.261 0,-12.295 9.966,-22.261 22.261,-22.261 12.295,0 22.261,9.966 22.261,22.261 0,12.295 -9.966,22.261 -22.261,22.261 z"
   id="path16" />
<g
   id="g18">
</g>
<g
   id="g20">
</g>
<g
   id="g22">
</g>
<g
   id="g24">
</g>
<g
   id="g26">
</g>
<g
   id="g28">
</g>
<g
   id="g30">
</g>
<g
   id="g32">
</g>
<g
   id="g34">
</g>
<g
   id="g36">
</g>
<g
   id="g38">
</g>
<g
   id="g40">
</g>
<g
   id="g42">
</g>
<g
   id="g44">
</g>
<g
   id="g46">
</g>
</svg>
